<svg xmlns="http://www.w3.org/2000/svg" width="349" height="230" viewBox="0 0 349 230">
  <path id="Image" d="M349-142.219c-3.932-1.919-12.428-7.2-14.96-12.951-3.165-7.2,24.454,51.23,5.754,61.3-14.96,8.059-23.878-3.55-26.467-10.361-1.438,34.92-14.154,92.443-53.51,43.171L247.158-85.521c-6.329,29.26-26.64,87.32-57.25,85.478s-18.316-89.6-8.343-133.254C163.44-117.18,122.7-83.449,104.752-77.463c-.1-17.077,1.956-55.547,10.932-72.815-26.563,12.088-86.307,29.011-112.774,0-4.6-9.689-7.135-39.2,19.563-79.722H349Z" transform="translate(349) rotate(180)" fill="#1a0c71"/>
</svg>
