<svg id="Elipse" xmlns="http://www.w3.org/2000/svg" width="132" height="132" viewBox="0 0 132 132">
  <g id="Ellipse_9" data-name="Ellipse 9" fill="none">
    <path d="M66,0A66,66,0,1,1,0,66,66,66,0,0,1,66,0Z" stroke="none"/>
    <path d="M 66 20 C 40.635498046875 20 20 40.635498046875 20 66 C 20 91.364501953125 40.635498046875 112 66 112 C 91.364501953125 112 112 91.364501953125 112 66 C 112 40.635498046875 91.364501953125 20 66 20 M 66 0 C 102.4507904052734 0 132 29.54921722412109 132 66 C 132 102.4507904052734 102.4507904052734 132 66 132 C 29.54921722412109 132 0 102.4507904052734 0 66 C 0 29.54921722412109 29.54921722412109 0 66 0 Z" stroke="none" fill="#ff6f00"/>
  </g>
  <text id="_90_" data-name="90%" transform="translate(40 53)" fill="#353535" font-size="24" font-family="Poppins-SemiBold, Poppins" font-weight="600"><tspan x="0" y="25">90%</tspan></text>
</svg>
